<svg width="186" height="53" viewBox="0 0 186 53" fill="none" xmlns="http://www.w3.org/2000/svg">
<g clip-path="url(#clip0_62_2517)">
<g clip-path="url(#clip1_62_2517)">
<path d="M32.275 17C29.815 17 27.4917 17.9889 25.8346 19.7017L13.825 30.7203C12.7317 31.8504 11.2796 32.4684 9.725 32.4684C6.53042 32.4684 3.91667 29.8021 3.91667 26.5C3.91667 23.198 6.53042 20.5316 9.725 20.5316C11.2796 20.5316 12.7317 21.1497 13.8933 22.3504L15.8238 24.1162L18.4375 21.75L16.2508 19.79C15.3953 18.9024 14.3782 18.1988 13.2581 17.7199C12.1379 17.2411 10.9371 16.9964 9.725 17C4.63417 17 0.5 21.2733 0.5 26.5C0.5 31.7268 4.63417 36 9.725 36C12.185 36 14.5083 35.0112 16.1654 33.2983L28.175 22.2798C29.2683 21.1497 30.7204 20.5316 32.275 20.5316C35.4696 20.5316 38.0833 23.198 38.0833 26.5C38.0833 29.8021 35.4696 32.4684 32.275 32.4684C30.7375 32.4684 29.2683 31.8504 28.1067 30.6496L26.125 28.8662L23.5625 31.2324L25.7492 33.21C26.607 34.0932 27.625 34.7927 28.7448 35.2684C29.8646 35.7442 31.0643 35.9868 32.275 35.9823C37.3658 35.9823 41.5 31.7268 41.5 26.5C41.5 21.2026 37.3658 17 32.275 17Z" fill="#02E4C0"/>
</g>
<path d="M59.7 29.06C61.0467 29.06 62.1133 28.5933 62.9 27.66C63.7 26.7133 64.1 25.46 64.1 23.9V23.74C64.1 22.2333 63.7 21.0067 62.9 20.06C62.1133 19.1 61.0333 18.62 59.66 18.62C58.2733 18.62 57.18 19.0867 56.38 20.02C55.5933 20.9533 55.2 22.2 55.2 23.76V23.92C55.2 25.4667 55.62 26.7133 56.46 27.66C57.3 28.5933 58.38 29.06 59.7 29.06ZM59.66 31.2C57.5 31.2 55.7533 30.5133 54.42 29.14C53.0867 27.7667 52.42 26.0333 52.42 23.94V23.78C52.42 21.6867 53.1 19.9533 54.46 18.58C55.82 17.1933 57.5533 16.5 59.66 16.5C61.78 16.5 63.5067 17.18 64.84 18.54C66.1867 19.8867 66.86 21.6133 66.86 23.72V23.88C66.86 26 66.1933 27.7533 64.86 29.14C63.54 30.5133 61.8067 31.2 59.66 31.2ZM69.3291 31V20.54H71.7491V22.5C72.4424 21.1 73.5757 20.3933 75.1491 20.38V22.64C74.0157 22.6533 73.1624 22.88 72.5891 23.32C72.0291 23.76 71.7491 24.5067 71.7491 25.56V31H69.3291ZM84.4039 31L81.2039 20.54H83.7839L85.8639 28.1L88.0839 20.54H90.1039L92.1439 28.1L94.3239 20.54H96.6839L93.4039 31H90.9439L89.0039 23.96L86.8839 31H84.4039ZM98.693 31V20.54H101.113V31H98.693ZM100.893 18.42C100.613 18.6867 100.273 18.82 99.873 18.82C99.473 18.82 99.133 18.6867 98.853 18.42C98.573 18.1533 98.433 17.8267 98.433 17.44C98.433 17.04 98.573 16.7067 98.853 16.44C99.133 16.1733 99.473 16.04 99.873 16.04C100.273 16.04 100.613 16.1733 100.893 16.44C101.173 16.7067 101.313 17.04 101.313 17.44C101.313 17.8267 101.173 18.1533 100.893 18.42ZM107.723 31.18C106.696 31.18 105.909 30.9133 105.363 30.38C104.829 29.8467 104.563 29.08 104.563 28.08V22.36H103.163V20.54H104.563V18.24H106.983V20.54H109.283V22.36H106.983V27.86C106.983 28.7533 107.383 29.2 108.183 29.2C108.649 29.2 109.043 29.1333 109.363 29V30.92C108.896 31.0933 108.349 31.18 107.723 31.18ZM111.645 31V15.7H114.065V22.2C114.332 21.6533 114.759 21.2067 115.345 20.86C115.932 20.5 116.632 20.32 117.445 20.32C118.552 20.32 119.425 20.66 120.065 21.34C120.705 22.0067 121.025 23.0333 121.025 24.42V31H118.605V24.64C118.605 23.8533 118.439 23.2733 118.105 22.9C117.772 22.5267 117.245 22.34 116.525 22.34C115.805 22.34 115.212 22.56 114.745 23C114.292 23.4267 114.065 24.04 114.065 24.84V31H111.645ZM128.779 31V20.54H131.199V22.5C131.892 21.1 133.026 20.3933 134.599 20.38V22.64C133.466 22.6533 132.612 22.88 132.039 23.32C131.479 23.76 131.199 24.5067 131.199 25.56V31H128.779ZM140.328 31.2C139.235 31.2 138.362 30.8733 137.708 30.22C137.055 29.5667 136.728 28.5733 136.728 27.24V20.54H139.148V26.96C139.148 27.7467 139.315 28.3267 139.648 28.7C139.982 29.0733 140.502 29.26 141.208 29.26C141.902 29.26 142.482 29.04 142.948 28.6C143.415 28.16 143.648 27.5467 143.648 26.76V20.54H146.068V31H143.648V29.36C143.368 29.9067 142.942 30.3533 142.368 30.7C141.808 31.0333 141.128 31.2 140.328 31.2ZM149.098 31V15.7H151.518V31H149.098ZM159.167 31.2C157.607 31.2 156.334 30.72 155.347 29.76C154.361 28.8 153.867 27.5067 153.867 25.88V25.72C153.867 24.12 154.354 22.82 155.327 21.82C156.314 20.82 157.561 20.32 159.067 20.32C160.481 20.32 161.654 20.76 162.587 21.64C163.534 22.52 164.007 23.84 164.007 25.6V26.3H156.347C156.387 27.3 156.654 28.0667 157.147 28.6C157.641 29.1333 158.334 29.4 159.227 29.4C160.641 29.4 161.441 28.8667 161.627 27.8H163.967C163.794 28.8933 163.287 29.7333 162.447 30.32C161.607 30.9067 160.514 31.2 159.167 31.2ZM156.387 24.68H161.607C161.487 22.9467 160.641 22.08 159.067 22.08C158.347 22.08 157.747 22.3133 157.267 22.78C156.801 23.2333 156.507 23.8667 156.387 24.68ZM169.947 31.2C168.6 31.2 167.547 30.9 166.787 30.3C166.027 29.7 165.62 28.8467 165.567 27.74H167.847C167.913 28.3 168.107 28.72 168.427 29C168.747 29.28 169.247 29.42 169.927 29.42C171.18 29.42 171.807 28.9733 171.807 28.08C171.807 27.6667 171.633 27.36 171.287 27.16C170.953 26.9467 170.38 26.7733 169.567 26.64C168.167 26.4133 167.187 26.0733 166.627 25.62C166.067 25.1533 165.787 24.4333 165.787 23.46C165.787 22.4733 166.173 21.7067 166.947 21.16C167.72 20.6 168.64 20.32 169.707 20.32C172.213 20.32 173.58 21.3733 173.807 23.48H171.567C171.46 23 171.26 22.6467 170.967 22.42C170.687 22.1933 170.267 22.08 169.707 22.08C169.187 22.08 168.78 22.1933 168.487 22.42C168.193 22.6467 168.047 22.9467 168.047 23.32C168.047 23.6933 168.2 23.9733 168.507 24.16C168.813 24.3467 169.38 24.5133 170.207 24.66C171.567 24.8733 172.56 25.2 173.187 25.64C173.813 26.08 174.127 26.82 174.127 27.86C174.127 28.9267 173.76 29.7533 173.027 30.34C172.307 30.9133 171.28 31.2 169.947 31.2Z" fill="white"/>
</g>
<defs>
<clipPath id="clip0_62_2517">
<rect width="185" height="53" fill="white" transform="translate(0.5)"/>
</clipPath>
<clipPath id="clip1_62_2517">
<rect width="41" height="53" fill="white" transform="translate(0.5)"/>
</clipPath>
</defs>
</svg>
