<svg width="205" height="80" viewBox="0 0 205 80" fill="none" xmlns="http://www.w3.org/2000/svg">
<g clip-path="url(#clip0_62_2505)">
<path d="M10.6464 32.6088L14.4197 28.8354L6.16636 20.5954C5.52636 19.9554 4.41969 20.1288 4.01969 20.9554C3.07302 22.9421 3.41969 25.3821 5.05969 27.0354L10.6464 32.6088ZM19.6864 30.1954C21.7264 31.1421 24.593 30.4754 26.713 28.3554C29.2597 25.8088 29.753 22.1554 27.793 20.1954C25.8464 18.2488 22.193 18.7288 19.633 21.2754C17.513 23.3954 16.8464 26.2621 17.793 28.3021L5.71302 40.3821C5.46372 40.6314 5.32366 40.9695 5.32366 41.3221C5.32366 41.6747 5.46372 42.0128 5.71302 42.2621C5.96233 42.5114 6.30046 42.6514 6.65302 42.6514C7.00559 42.6514 7.34372 42.5114 7.59302 42.2621L15.8464 34.0354L24.0864 42.2754C24.2098 42.3989 24.3563 42.4968 24.5176 42.5636C24.6789 42.6304 24.8518 42.6648 25.0264 42.6648C25.2009 42.6648 25.3738 42.6304 25.5351 42.5636C25.6964 42.4968 25.8429 42.3989 25.9664 42.2754C26.0898 42.152 26.1877 42.0054 26.2545 41.8441C26.3213 41.6829 26.3557 41.51 26.3557 41.3354C26.3557 41.1608 26.3213 40.988 26.2545 40.8267C26.1877 40.6654 26.0898 40.5189 25.9664 40.3954L17.7264 32.1554L19.6864 30.1954V30.1954Z" fill="#02E4C0"/>
<path d="M42.5343 30.9999L47.3143 16.6999H50.7943L55.5143 30.9999H52.7543L51.6143 27.4599H46.1543L45.0343 30.9999H42.5343ZM48.8943 18.8799L46.7743 25.5199H50.9943L48.8943 18.8799ZM66.0424 31.1999C64.6957 31.1999 63.6424 30.8999 62.8824 30.2999C62.1224 29.6999 61.7157 28.8465 61.6624 27.7399H63.9424C64.0091 28.2999 64.2024 28.7199 64.5224 28.9999C64.8424 29.2799 65.3424 29.4199 66.0224 29.4199C67.2757 29.4199 67.9024 28.9732 67.9024 28.0799C67.9024 27.6665 67.7291 27.3599 67.3824 27.1599C67.0491 26.9465 66.4757 26.7732 65.6624 26.6399C64.2624 26.4132 63.2824 26.0732 62.7224 25.6199C62.1624 25.1532 61.8824 24.4332 61.8824 23.4599C61.8824 22.4732 62.2691 21.7065 63.0424 21.1599C63.8157 20.5999 64.7357 20.3199 65.8024 20.3199C68.3091 20.3199 69.6757 21.3732 69.9024 23.4799H67.6624C67.5557 22.9999 67.3557 22.6465 67.0624 22.4199C66.7824 22.1932 66.3624 22.0799 65.8024 22.0799C65.2824 22.0799 64.8757 22.1932 64.5824 22.4199C64.2891 22.6465 64.1424 22.9465 64.1424 23.3199C64.1424 23.6932 64.2957 23.9732 64.6024 24.1599C64.9091 24.3465 65.4757 24.5132 66.3024 24.6599C67.6624 24.8732 68.6557 25.1999 69.2824 25.6399C69.9091 26.0799 70.2224 26.8199 70.2224 27.8599C70.2224 28.9265 69.8557 29.7532 69.1224 30.3399C68.4024 30.9132 67.3757 31.1999 66.0424 31.1999ZM72.5052 30.9999V20.5399H74.9252V30.9999H72.5052ZM74.7052 18.4199C74.4252 18.6865 74.0852 18.8199 73.6852 18.8199C73.2852 18.8199 72.9452 18.6865 72.6652 18.4199C72.3852 18.1532 72.2452 17.8265 72.2452 17.4399C72.2452 17.0399 72.3852 16.7065 72.6652 16.4399C72.9452 16.1732 73.2852 16.0399 73.6852 16.0399C74.0852 16.0399 74.4252 16.1732 74.7052 16.4399C74.9852 16.7065 75.1252 17.0399 75.1252 17.4399C75.1252 17.8265 74.9852 18.1532 74.7052 18.4199ZM77.9749 30.9999V20.5399H80.3949V22.1999C80.6616 21.6532 81.0882 21.2065 81.6749 20.8599C82.2616 20.4999 82.9616 20.3199 83.7749 20.3199C84.8816 20.3199 85.7549 20.6599 86.3949 21.3399C87.0349 22.0065 87.3549 23.0332 87.3549 24.4199V30.9999H84.9349V24.6399C84.9349 23.8532 84.7682 23.2732 84.4349 22.8999C84.1016 22.5265 83.5749 22.3399 82.8549 22.3399C82.1349 22.3399 81.5416 22.5599 81.0749 22.9999C80.6216 23.4265 80.3949 24.0399 80.3949 24.8399V30.9999H77.9749ZM94.7029 34.8399C93.1429 34.8399 91.9495 34.5265 91.1229 33.8999C90.2962 33.2732 89.8095 32.4265 89.6629 31.3599H92.1029C92.3162 32.4532 93.1762 32.9999 94.6829 32.9999C96.6295 32.9999 97.6029 32.0599 97.6029 30.1799V28.6399C97.2962 29.1732 96.8295 29.6332 96.2029 30.0199C95.5895 30.3932 94.9162 30.5799 94.1829 30.5799C92.8495 30.5799 91.7429 30.1199 90.8629 29.1999C89.9829 28.2799 89.5429 27.0799 89.5429 25.5999V25.4599C89.5429 23.9932 89.9895 22.7732 90.8829 21.7999C91.7762 20.8132 92.8962 20.3199 94.2429 20.3199C95.7895 20.3199 96.9095 20.9265 97.6029 22.1399V20.5399H100.023V30.2199C100.01 31.7265 99.5295 32.8732 98.5829 33.6599C97.6495 34.4465 96.3562 34.8399 94.7029 34.8399ZM94.7829 28.7199C95.6362 28.7199 96.3295 28.4332 96.8629 27.8599C97.4095 27.2865 97.6829 26.5065 97.6829 25.5199V25.3799C97.6829 24.3932 97.4295 23.6199 96.9229 23.0599C96.4162 22.4999 95.7295 22.2199 94.8629 22.2199C93.9829 22.2199 93.2895 22.5132 92.7829 23.0999C92.2762 23.6865 92.0229 24.4599 92.0229 25.4199V25.5799C92.0229 26.5265 92.2829 27.2865 92.8029 27.8599C93.3229 28.4332 93.9829 28.7199 94.7829 28.7199ZM103.059 30.9999V15.6999H105.479V30.9999H103.059ZM113.129 31.1999C111.569 31.1999 110.295 30.7199 109.309 29.7599C108.322 28.7999 107.829 27.5065 107.829 25.8799V25.7199C107.829 24.1199 108.315 22.8199 109.289 21.8199C110.275 20.8199 111.522 20.3199 113.029 20.3199C114.442 20.3199 115.615 20.7599 116.549 21.6399C117.495 22.5199 117.969 23.8399 117.969 25.5999V26.2999H110.309C110.349 27.2999 110.615 28.0665 111.109 28.5999C111.602 29.1332 112.295 29.3999 113.189 29.3999C114.602 29.3999 115.402 28.8665 115.589 27.7999H117.929C117.755 28.8932 117.249 29.7332 116.409 30.3199C115.569 30.9065 114.475 31.1999 113.129 31.1999ZM110.349 24.6799H115.569C115.449 22.9465 114.602 22.0799 113.029 22.0799C112.309 22.0799 111.709 22.3132 111.229 22.7799C110.762 23.2332 110.469 23.8665 110.349 24.6799ZM128.676 31.1999C127.329 31.1999 126.276 30.8999 125.516 30.2999C124.756 29.6999 124.349 28.8465 124.296 27.7399H126.576C126.643 28.2999 126.836 28.7199 127.156 28.9999C127.476 29.2799 127.976 29.4199 128.656 29.4199C129.909 29.4199 130.536 28.9732 130.536 28.0799C130.536 27.6665 130.363 27.3599 130.016 27.1599C129.683 26.9465 129.109 26.7732 128.296 26.6399C126.896 26.4132 125.916 26.0732 125.356 25.6199C124.796 25.1532 124.516 24.4332 124.516 23.4599C124.516 22.4732 124.903 21.7065 125.676 21.1599C126.449 20.5999 127.369 20.3199 128.436 20.3199C130.943 20.3199 132.309 21.3732 132.536 23.4799H130.296C130.189 22.9999 129.989 22.6465 129.696 22.4199C129.416 22.1932 128.996 22.0799 128.436 22.0799C127.916 22.0799 127.509 22.1932 127.216 22.4199C126.923 22.6465 126.776 22.9465 126.776 23.3199C126.776 23.6932 126.929 23.9732 127.236 24.1599C127.543 24.3465 128.109 24.5132 128.936 24.6599C130.296 24.8732 131.289 25.1999 131.916 25.6399C132.543 26.0799 132.856 26.8199 132.856 27.8599C132.856 28.9265 132.489 29.7532 131.756 30.3399C131.036 30.9132 130.009 31.1999 128.676 31.1999ZM139.759 29.3199C140.652 29.3199 141.352 29.0132 141.859 28.3999C142.379 27.7732 142.639 26.9199 142.639 25.8399V25.6999C142.639 24.6199 142.379 23.7732 141.859 23.1599C141.352 22.5332 140.652 22.2199 139.759 22.2199C138.852 22.2199 138.139 22.5265 137.619 23.1399C137.112 23.7532 136.859 24.5999 136.859 25.6799V25.8399C136.859 26.9199 137.112 27.7732 137.619 28.3999C138.139 29.0132 138.852 29.3199 139.759 29.3199ZM143.599 29.7199C142.585 30.7065 141.299 31.1999 139.739 31.1999C138.179 31.1999 136.892 30.7065 135.879 29.7199C134.879 28.7332 134.379 27.4532 134.379 25.8799V25.7199C134.379 24.1199 134.885 22.8199 135.899 21.8199C136.912 20.8199 138.199 20.3199 139.759 20.3199C141.305 20.3199 142.585 20.8132 143.599 21.7999C144.612 22.7865 145.119 24.0732 145.119 25.6599V25.8199C145.119 27.4332 144.612 28.7332 143.599 29.7199ZM150.905 31.1999C149.812 31.1999 148.939 30.8732 148.285 30.2199C147.632 29.5665 147.305 28.5732 147.305 27.2399V20.5399H149.725V26.9599C149.725 27.7465 149.892 28.3265 150.225 28.6999C150.559 29.0732 151.079 29.2599 151.785 29.2599C152.479 29.2599 153.059 29.0399 153.525 28.5999C153.992 28.1599 154.225 27.5465 154.225 26.7599V20.5399H156.645V30.9999H154.225V29.3599C153.945 29.9065 153.519 30.3532 152.945 30.6999C152.385 31.0332 151.705 31.1999 150.905 31.1999ZM159.615 30.9999V20.5399H162.035V22.4999C162.728 21.0999 163.861 20.3932 165.435 20.3799V22.6399C164.301 22.6532 163.448 22.8799 162.875 23.3199C162.315 23.7599 162.035 24.5065 162.035 25.5599V30.9999H159.615ZM172.049 31.1999C170.515 31.1999 169.249 30.7265 168.249 29.7799C167.262 28.8199 166.769 27.5265 166.769 25.8999V25.7399C166.769 24.1132 167.275 22.8065 168.289 21.8199C169.302 20.8199 170.555 20.3199 172.049 20.3199C173.329 20.3199 174.409 20.6399 175.289 21.2799C176.182 21.9065 176.695 22.8932 176.829 24.2399H174.489C174.302 22.9199 173.502 22.2599 172.089 22.2599C171.249 22.2599 170.562 22.5665 170.029 23.1799C169.509 23.7932 169.249 24.6332 169.249 25.6999V25.8599C169.249 26.9799 169.502 27.8399 170.009 28.4399C170.529 29.0399 171.242 29.3399 172.149 29.3399C172.815 29.3399 173.382 29.1465 173.849 28.7599C174.329 28.3599 174.602 27.8065 174.669 27.0999H176.889C176.795 28.3265 176.315 29.3199 175.449 30.0799C174.582 30.8265 173.449 31.1999 172.049 31.1999ZM183.673 31.1999C182.113 31.1999 180.839 30.7199 179.853 29.7599C178.866 28.7999 178.373 27.5065 178.373 25.8799V25.7199C178.373 24.1199 178.859 22.8199 179.833 21.8199C180.819 20.8199 182.066 20.3199 183.573 20.3199C184.986 20.3199 186.159 20.7599 187.093 21.6399C188.039 22.5199 188.513 23.8399 188.513 25.5999V26.2999H180.853C180.893 27.2999 181.159 28.0665 181.653 28.5999C182.146 29.1332 182.839 29.3999 183.733 29.3999C185.146 29.3999 185.946 28.8665 186.133 27.7999H188.473C188.299 28.8932 187.793 29.7332 186.953 30.3199C186.113 30.9065 185.019 31.1999 183.673 31.1999ZM180.893 24.6799H186.113C185.993 22.9465 185.146 22.0799 183.573 22.0799C182.853 22.0799 182.253 22.3132 181.773 22.7799C181.306 23.2332 181.013 23.8665 180.893 24.6799ZM48.1143 59.3199C49.0076 59.3199 49.7076 59.0132 50.2143 58.3999C50.7343 57.7732 50.9943 56.9199 50.9943 55.8399V55.6999C50.9943 54.6199 50.7343 53.7732 50.2143 53.1599C49.7076 52.5332 49.0076 52.2199 48.1143 52.2199C47.2076 52.2199 46.4943 52.5265 45.9743 53.1399C45.4676 53.7532 45.2143 54.5999 45.2143 55.6799V55.8399C45.2143 56.9199 45.4676 57.7732 45.9743 58.3999C46.4943 59.0132 47.2076 59.3199 48.1143 59.3199ZM51.9543 59.7199C50.9409 60.7065 49.6543 61.1999 48.0943 61.1999C46.5343 61.1999 45.2476 60.7065 44.2343 59.7199C43.2343 58.7332 42.7343 57.4532 42.7343 55.8799V55.7199C42.7343 54.1199 43.2409 52.8199 44.2543 51.8199C45.2676 50.8199 46.5543 50.3199 48.1143 50.3199C49.6609 50.3199 50.9409 50.8132 51.9543 51.7999C52.9676 52.7865 53.4743 54.0732 53.4743 55.6599V55.8199C53.4743 57.4332 52.9676 58.7332 51.9543 59.7199ZM56.1808 60.9999V52.3599H54.7608V50.5399H56.1808V49.1399C56.1808 47.9932 56.4875 47.1199 57.1008 46.5199C57.7142 45.9065 58.5808 45.5999 59.7008 45.5999C60.2075 45.5999 60.6675 45.6665 61.0808 45.7999V47.6799C60.7475 47.5599 60.3808 47.4999 59.9808 47.4999C59.0608 47.4999 58.6008 48.0132 58.6008 49.0399V50.5399H60.9808V52.3599H58.6008V60.9999H56.1808ZM71.5325 61.1799C70.5059 61.1799 69.7192 60.9132 69.1725 60.3799C68.6392 59.8465 68.3725 59.0799 68.3725 58.0799V52.3599H66.9725V50.5399H68.3725V48.2399H70.7925V50.5399H73.0925V52.3599H70.7925V57.8599C70.7925 58.7532 71.1925 59.1999 71.9925 59.1999C72.4592 59.1999 72.8525 59.1332 73.1725 58.9999V60.9199C72.7059 61.0932 72.1592 61.1799 71.5325 61.1799ZM75.4554 60.9999V50.5399H77.8754V52.4999C78.5687 51.0999 79.702 50.3932 81.2754 50.3799V52.6399C80.142 52.6532 79.2887 52.8799 78.7154 53.3199C78.1554 53.7599 77.8754 54.5065 77.8754 55.5599V60.9999H75.4554ZM87.0046 61.1999C85.9112 61.1999 85.0379 60.8732 84.3846 60.2199C83.7312 59.5665 83.4046 58.5732 83.4046 57.2399V50.5399H85.8246V56.9599C85.8246 57.7465 85.9912 58.3265 86.3246 58.6999C86.6579 59.0732 87.1779 59.2599 87.8846 59.2599C88.5779 59.2599 89.1579 59.0399 89.6246 58.5999C90.0912 58.1599 90.3246 57.5465 90.3246 56.7599V50.5399H92.7446V60.9999H90.3246V59.3599C90.0446 59.9065 89.6179 60.3532 89.0446 60.6999C88.4846 61.0332 87.8046 61.1999 87.0046 61.1999ZM99.2739 61.1799C98.2473 61.1799 97.4606 60.9132 96.9139 60.3799C96.3806 59.8465 96.1139 59.0799 96.1139 58.0799V52.3599H94.7139V50.5399H96.1139V48.2399H98.5339V50.5399H100.834V52.3599H98.5339V57.8599C98.5339 58.7532 98.9339 59.1999 99.7339 59.1999C100.201 59.1999 100.594 59.1332 100.914 58.9999V60.9199C100.447 61.0932 99.9006 61.1799 99.2739 61.1799ZM103.197 60.9999V45.6999H105.617V52.1999C105.883 51.6532 106.31 51.2065 106.897 50.8599C107.483 50.4999 108.183 50.3199 108.997 50.3199C110.103 50.3199 110.977 50.6599 111.617 51.3399C112.257 52.0065 112.577 53.0332 112.577 54.4199V60.9999H110.157V54.6399C110.157 53.8532 109.99 53.2732 109.657 52.8999C109.323 52.5265 108.797 52.3399 108.077 52.3399C107.357 52.3399 106.763 52.5599 106.297 52.9999C105.843 53.4265 105.617 54.0399 105.617 54.8399V60.9999H103.197Z" fill="white"/>
</g>
<defs>
<clipPath id="clip0_62_2505">
<rect width="204.494" height="80" fill="white" transform="translate(0.5 -0.00012207)"/>
</clipPath>
</defs>
</svg>
