<svg width="141" height="80" viewBox="0 0 141 80" fill="none" xmlns="http://www.w3.org/2000/svg">
<g clip-path="url(#clip0_62_2511)">
<path d="M14.5495 28.3949C16.0285 30.8549 15.811 33.7499 14.042 34.9199C12.273 36.0599 9.634 34.9949 8.1405 32.5349C6.6615 30.0749 6.8935 27.1499 8.6625 26.0099C10.4315 24.8699 13.0705 25.9349 14.5495 28.3949ZM17 38.6249C19.9 38.6249 20.625 37.4999 20.625 37.4999C20.625 37.4999 19.9 40.4999 17 40.4999C14.1 40.4999 13.375 37.5449 13.375 37.4999C13.375 37.4999 14.1 38.6249 17 38.6249ZM25.3375 26.0099C27.1065 27.1499 27.3385 30.0749 25.8595 32.5349C24.366 34.9949 21.727 36.0599 19.958 34.9199C18.189 33.7499 17.9715 30.8549 19.4505 28.3949C20.9295 25.9349 23.5685 24.8699 25.3375 26.0099ZM17 41.9999C20.625 41.9999 28.6 34.2899 28.6 28.4999C28.6 22.7099 23.3945 17.9999 17 17.9999C10.6055 17.9999 5.4 22.7099 5.4 28.4999C5.4 34.2899 13.375 41.9999 17 41.9999ZM17 14.9999C24.975 14.9999 31.5 21.0599 31.5 28.4999C31.5 34.6199 23.264 44.9999 17 44.9999C10.736 44.9999 2.5 34.6199 2.5 28.4999C2.5 21.0599 9.025 14.9999 17 14.9999Z" fill="#02E4C0"/>
<path d="M45.22 30.9999V16.6999H47.9V30.9999H45.22ZM51.1728 30.9999V20.5399H53.5928V22.1999C53.8595 21.6532 54.2861 21.2065 54.8728 20.8599C55.4595 20.4999 56.1595 20.3199 56.9728 20.3199C58.0795 20.3199 58.9528 20.6599 59.5928 21.3399C60.2328 22.0065 60.5528 23.0332 60.5528 24.4199V30.9999H58.1328V24.6399C58.1328 23.8532 57.9661 23.2732 57.6328 22.8999C57.2995 22.5265 56.7728 22.3399 56.0528 22.3399C55.3328 22.3399 54.7395 22.5599 54.2728 22.9999C53.8195 23.4265 53.5928 24.0399 53.5928 24.8399V30.9999H51.1728ZM67.0008 31.1799C65.9741 31.1799 65.1874 30.9132 64.6408 30.3799C64.1074 29.8465 63.8408 29.0799 63.8408 28.0799V22.3599H62.4408V20.5399H63.8408V18.2399H66.2608V20.5399H68.5608V22.3599H66.2608V27.8599C66.2608 28.7532 66.6608 29.1999 67.4608 29.1999C67.9274 29.1999 68.3208 29.1332 68.6408 28.9999V30.9199C68.1741 31.0932 67.6274 31.1799 67.0008 31.1799ZM74.4236 31.1999C73.3303 31.1999 72.4569 30.8732 71.8036 30.2199C71.1503 29.5665 70.8236 28.5732 70.8236 27.2399V20.5399H73.2436V26.9599C73.2436 27.7465 73.4103 28.3265 73.7436 28.6999C74.0769 29.0732 74.5969 29.2599 75.3036 29.2599C75.9969 29.2599 76.5769 29.0399 77.0436 28.5999C77.5103 28.1599 77.7436 27.5465 77.7436 26.7599V20.5399H80.1636V30.9999H77.7436V29.3599C77.4636 29.9065 77.0369 30.3532 76.4636 30.6999C75.9036 31.0332 75.2236 31.1999 74.4236 31.1999ZM83.193 30.9999V20.5399H85.613V30.9999H83.193ZM85.393 18.4199C85.113 18.6865 84.773 18.8199 84.373 18.8199C83.973 18.8199 83.633 18.6865 83.353 18.4199C83.073 18.1532 82.933 17.8265 82.933 17.4399C82.933 17.0399 83.073 16.7065 83.353 16.4399C83.633 16.1732 83.973 16.0399 84.373 16.0399C84.773 16.0399 85.113 16.1732 85.393 16.4399C85.673 16.7065 85.813 17.0399 85.813 17.4399C85.813 17.8265 85.673 18.1532 85.393 18.4199ZM92.2227 31.1799C91.196 31.1799 90.4093 30.9132 89.8627 30.3799C89.3293 29.8465 89.0627 29.0799 89.0627 28.0799V22.3599H87.6627V20.5399H89.0627V18.2399H91.4827V20.5399H93.7827V22.3599H91.4827V27.8599C91.4827 28.7532 91.8827 29.1999 92.6827 29.1999C93.1493 29.1999 93.5427 29.1332 93.8627 28.9999V30.9199C93.396 31.0932 92.8493 31.1799 92.2227 31.1799ZM96.2055 30.9999V20.5399H98.6255V30.9999H96.2055ZM98.4055 18.4199C98.1255 18.6865 97.7855 18.8199 97.3855 18.8199C96.9855 18.8199 96.6455 18.6865 96.3655 18.4199C96.0855 18.1532 95.9455 17.8265 95.9455 17.4399C95.9455 17.0399 96.0855 16.7065 96.3655 16.4399C96.6455 16.1732 96.9855 16.0399 97.3855 16.0399C97.7855 16.0399 98.1255 16.1732 98.4055 16.4399C98.6855 16.7065 98.8255 17.0399 98.8255 17.4399C98.8255 17.8265 98.6855 18.1532 98.4055 18.4199ZM104.415 30.9999L100.595 20.5399H103.195L105.935 28.5199L108.635 20.5399H111.015L107.235 30.9999H104.415ZM117.117 31.1999C115.557 31.1999 114.284 30.7199 113.297 29.7599C112.311 28.7999 111.817 27.5065 111.817 25.8799V25.7199C111.817 24.1199 112.304 22.8199 113.277 21.8199C114.264 20.8199 115.511 20.3199 117.017 20.3199C118.431 20.3199 119.604 20.7599 120.537 21.6399C121.484 22.5199 121.957 23.8399 121.957 25.5999V26.2999H114.297C114.337 27.2999 114.604 28.0665 115.097 28.5999C115.591 29.1332 116.284 29.3999 117.177 29.3999C118.591 29.3999 119.391 28.8665 119.577 27.7999H121.917C121.744 28.8932 121.237 29.7332 120.397 30.3199C119.557 30.9065 118.464 31.1999 117.117 31.1999ZM114.337 24.6799H119.557C119.437 22.9465 118.591 22.0799 117.017 22.0799C116.297 22.0799 115.697 22.3132 115.217 22.7799C114.751 23.2332 114.457 23.8665 114.337 24.6799ZM45 60.9999V50.5399H47.42V60.9999H45ZM47.2 48.4199C46.92 48.6865 46.58 48.8199 46.18 48.8199C45.78 48.8199 45.44 48.6865 45.16 48.4199C44.88 48.1532 44.74 47.8265 44.74 47.4399C44.74 47.0399 44.88 46.7065 45.16 46.4399C45.44 46.1732 45.78 46.0399 46.18 46.0399C46.58 46.0399 46.92 46.1732 47.2 46.4399C47.48 46.7065 47.62 47.0399 47.62 47.4399C47.62 47.8265 47.48 48.1532 47.2 48.4199ZM50.4697 60.9999V50.5399H52.8897V52.1999C53.1564 51.6532 53.583 51.2065 54.1697 50.8599C54.7564 50.4999 55.4564 50.3199 56.2697 50.3199C57.3764 50.3199 58.2497 50.6599 58.8897 51.3399C59.5297 52.0065 59.8497 53.0332 59.8497 54.4199V60.9999H57.4297V54.6399C57.4297 53.8532 57.263 53.2732 56.9297 52.8999C56.5964 52.5265 56.0697 52.3399 55.3497 52.3399C54.6297 52.3399 54.0364 52.5599 53.5697 52.9999C53.1164 53.4265 52.8897 54.0399 52.8897 54.8399V60.9999H50.4697ZM66.2977 61.1799C65.271 61.1799 64.4843 60.9132 63.9377 60.3799C63.4043 59.8465 63.1377 59.0799 63.1377 58.0799V52.3599H61.7377V50.5399H63.1377V48.2399H65.5577V50.5399H67.8577V52.3599H65.5577V57.8599C65.5577 58.7532 65.9577 59.1999 66.7577 59.1999C67.2243 59.1999 67.6177 59.1332 67.9377 58.9999V60.9199C67.471 61.0932 66.9243 61.1799 66.2977 61.1799ZM74.8205 61.1999C73.2605 61.1999 71.9871 60.7199 71.0005 59.7599C70.0138 58.7999 69.5205 57.5065 69.5205 55.8799V55.7199C69.5205 54.1199 70.0071 52.8199 70.9805 51.8199C71.9671 50.8199 73.2138 50.3199 74.7205 50.3199C76.1338 50.3199 77.3071 50.7599 78.2405 51.6399C79.1871 52.5199 79.6605 53.8399 79.6605 55.5999V56.2999H72.0005C72.0405 57.2999 72.3071 58.0665 72.8005 58.5999C73.2938 59.1332 73.9871 59.3999 74.8805 59.3999C76.2938 59.3999 77.0938 58.8665 77.2805 57.7999H79.6205C79.4471 58.8932 78.9405 59.7332 78.1005 60.3199C77.2605 60.9065 76.1671 61.1999 74.8205 61.1999ZM72.0405 54.6799H77.2605C77.1405 52.9465 76.2938 52.0799 74.7205 52.0799C74.0005 52.0799 73.4005 52.3132 72.9205 52.7799C72.4538 53.2332 72.1605 53.8665 72.0405 54.6799ZM81.922 60.9999V50.5399H84.342V52.4999C85.0354 51.0999 86.1687 50.3932 87.742 50.3799V52.6399C86.6087 52.6532 85.7554 52.8799 85.182 53.3199C84.622 53.7599 84.342 54.5065 84.342 55.5599V60.9999H81.922ZM90.5866 60.9999V52.3599H89.1666V50.5399H90.5866V49.1399C90.5866 47.9932 90.8932 47.1199 91.5066 46.5199C92.1199 45.9065 92.9866 45.5999 94.1066 45.5999C94.6132 45.5999 95.0732 45.6665 95.4866 45.7999V47.6799C95.1532 47.5599 94.7866 47.4999 94.3866 47.4999C93.4666 47.4999 93.0066 48.0132 93.0066 49.0399V50.5399H95.3866V52.3599H93.0066V60.9999H90.5866ZM100.057 61.1999C99.0307 61.1999 98.1907 60.9465 97.5373 60.4399C96.884 59.9199 96.5573 59.1399 96.5573 58.0999C96.5573 56.9532 97.044 56.1132 98.0173 55.5799C98.9907 55.0465 100.291 54.7799 101.917 54.7799H103.217V54.2399C103.217 53.5199 103.071 52.9932 102.777 52.6599C102.497 52.3132 102.011 52.1399 101.317 52.1399C100.104 52.1399 99.4373 52.6865 99.3173 53.7799H96.9773C97.0707 52.6199 97.524 51.7532 98.3373 51.1799C99.164 50.6065 100.204 50.3199 101.457 50.3199C104.244 50.3199 105.637 51.5932 105.637 54.1399V60.9999H103.257V59.7199C102.511 60.7065 101.444 61.1999 100.057 61.1999ZM100.637 59.4599C101.397 59.4599 102.017 59.2732 102.497 58.8999C102.977 58.5132 103.217 57.9932 103.217 57.3399V56.2999H101.977C99.964 56.2999 98.9573 56.8665 98.9573 57.9999C98.9573 58.9732 99.5173 59.4599 100.637 59.4599ZM113.091 61.1999C111.558 61.1999 110.291 60.7265 109.291 59.7799C108.304 58.8199 107.811 57.5265 107.811 55.8999V55.7399C107.811 54.1132 108.318 52.8065 109.331 51.8199C110.344 50.8199 111.598 50.3199 113.091 50.3199C114.371 50.3199 115.451 50.6399 116.331 51.2799C117.224 51.9065 117.738 52.8932 117.871 54.2399H115.531C115.344 52.9199 114.544 52.2599 113.131 52.2599C112.291 52.2599 111.604 52.5665 111.071 53.1799C110.551 53.7932 110.291 54.6332 110.291 55.6999V55.8599C110.291 56.9799 110.544 57.8399 111.051 58.4399C111.571 59.0399 112.284 59.3399 113.191 59.3399C113.858 59.3399 114.424 59.1465 114.891 58.7599C115.371 58.3599 115.644 57.8065 115.711 57.0999H117.931C117.838 58.3265 117.358 59.3199 116.491 60.0799C115.624 60.8265 114.491 61.1999 113.091 61.1999ZM124.715 61.1999C123.155 61.1999 121.882 60.7199 120.895 59.7599C119.908 58.7999 119.415 57.5065 119.415 55.8799V55.7199C119.415 54.1199 119.902 52.8199 120.875 51.8199C121.862 50.8199 123.108 50.3199 124.615 50.3199C126.028 50.3199 127.202 50.7599 128.135 51.6399C129.082 52.5199 129.555 53.8399 129.555 55.5999V56.2999H121.895C121.935 57.2999 122.202 58.0665 122.695 58.5999C123.188 59.1332 123.882 59.3999 124.775 59.3999C126.188 59.3999 126.988 58.8665 127.175 57.7999H129.515C129.342 58.8932 128.835 59.7332 127.995 60.3199C127.155 60.9065 126.062 61.1999 124.715 61.1999ZM121.935 54.6799H127.155C127.035 52.9465 126.188 52.0799 124.615 52.0799C123.895 52.0799 123.295 52.3132 122.815 52.7799C122.348 53.2332 122.055 53.8665 121.935 54.6799Z" fill="white"/>
</g>
<defs>
<clipPath id="clip0_62_2511">
<rect width="140" height="80" fill="white" transform="translate(0.5 -0.00012207)"/>
</clipPath>
</defs>
</svg>
